<svg width="120" height="100" viewBox="0 0 120 100" fill="none" xmlns="http://www.w3.org/2000/svg">
<g clip-path="url(#clip0)">
<path d="M53.1947 95.9884C56.3212 101.047 63.6788 101.047 66.8053 95.9884L118.275 12.7057C121.568 7.37602 117.735 0.5 111.469 0.5H8.53061C2.26523 0.5 -1.5685 7.37601 1.72531 12.7057L53.1947 95.9884Z" fill="#003641"/>
<path d="M44.014 41.3916H73.9244L58.5554 18.4914L44.014 41.3916Z" fill="#003641"/>
<path fill-rule="evenodd" clip-rule="evenodd" d="M59.4696 41.2975L68.6016 26.7651L79.2668 43.5047C80.5296 45.2097 80.2086 46.9343 77.9337 47H63.069L59.4696 41.2975Z" fill="#003641"/>
<path fill-rule="evenodd" clip-rule="evenodd" d="M39.6066 43.5045C38.3435 45.2095 38.6646 46.9341 40.9396 46.9998L63.1942 46.9347L53.5449 32.1128L46.8049 32.1348L39.6066 43.5045Z" fill="#003641"/>
<path fill-rule="evenodd" clip-rule="evenodd" d="M65.0279 32.3223L68.5903 26.7679L61.5527 15.3328C60.4061 13.2876 58.5736 13.3041 57.2384 15.4399L46.6453 32.2904L65.0279 32.3223Z" fill="#003641"/>
<path fill-rule="evenodd" clip-rule="evenodd" d="M60.5059 23.7881L40.8352 56.0391L18.5332 18.5933C15.8925 14.7793 16.5639 10.9215 21.3207 10.7745H52.4042L60.5059 23.7881Z" fill="#7DB61C"/>
<path fill-rule="evenodd" clip-rule="evenodd" d="M101.467 18.5919C104.108 14.778 103.436 10.9201 98.6789 10.7732H52.3881L72.1412 44.0256H86.4141L101.467 18.5919Z" fill="#00AE9D"/>
<path fill-rule="evenodd" clip-rule="evenodd" d="M48.096 43.6779L40.8582 56.0316L55.5744 81.6114C57.9721 86.1866 61.8041 86.1497 64.596 81.3718L86.7472 43.6779H48.096Z" fill="#C9D200"/>
</g>
<defs>
<clipPath id="clip0">
<rect width="120" height="100" fill="white"/>
</clipPath>
</defs>
</svg>
