<svg width="210" height="210" viewBox="0 0 210 210" fill="none" xmlns="http://www.w3.org/2000/svg">
<path fill-rule="evenodd" clip-rule="evenodd" d="M1.98395 0L12.4119 0.0180096L7.70403 8.09972C6.58971 10.0126 3.77265 10.0075 2.66558 8.09057L0 3.47501L1.98395 0ZM2.29262 0.516615L0.604445 3.47356L3.1241 7.83645C4.02989 9.40485 6.33475 9.40904 7.24647 7.84394L11.5056 0.532526L2.29262 0.516615Z" transform="translate(89.3804 109.406) scale(3)" fill="white"/>
<path fill-rule="evenodd" clip-rule="evenodd" d="M0.37476 4.22731C-0.708891 2.33523 0.687033 0 2.90171 0H8.26216L10.3193 3.50096L5.09401 12.4672L0.37476 4.22731ZM2.90171 0.516081C1.0897 0.516081 -0.0524182 2.42672 0.834206 3.97479L5.09799 11.4195L9.71205 3.50202L7.95754 0.516081H2.90171Z" transform="translate(75 84.0029) scale(3)" fill="white"/>
<path fill-rule="evenodd" clip-rule="evenodd" d="M0.136828 0.031822C0.264392 -0.0366885 0.424497 0.00907582 0.494433 0.13404L5.0993 8.36216H8.77229C8.91777 8.36216 9.0357 8.47769 9.0357 8.6202C9.0357 8.76271 8.91777 8.87824 8.77229 8.87824H4.78733L0.0324841 0.382138C-0.0374519 0.257174 0.00926465 0.100332 0.136828 0.031822Z" transform="translate(98.8345 84.3223) scale(3)" fill="white"/>
<path fill-rule="evenodd" clip-rule="evenodd" d="M0 0.25804C0 0.115529 0.117932 0 0.263409 0H9.25213C11.4635 0 12.8598 2.32894 11.7827 4.22092L9.13612 8.87001C9.06527 8.99447 8.90483 9.03911 8.77777 8.9697C8.65072 8.90028 8.60516 8.74312 8.67601 8.61865L11.3226 3.96956C12.2038 2.42158 11.0614 0.516081 9.25213 0.516081H0.263409C0.117932 0.516081 0 0.400552 0 0.25804Z" transform="translate(98.5386 84) scale(3)" fill="white"/>
</svg>
